<?xml version="1.0" encoding="UTF-8" standalone="no"?> <!-- Created with Vectornator for iOS (http://vectornator.io/) --><!DOCTYPE svg PUBLIC "-//W3C//DTD SVG 1.1//EN" "http://www.w3.org/Graphics/SVG/1.1/DTD/svg11.dtd">
<svg style="fill-rule:evenodd;clip-rule:evenodd;stroke-linecap:round;stroke-linejoin:round;" xmlns:vectornator="http://vectornator.io" xmlns:xlink="http://www.w3.org/1999/xlink" xmlns="http://www.w3.org/2000/svg" xml:space="preserve" version="1.1" viewBox="0 0 1440 320">
<metadata>
<vectornator:setting key="DynamicGuides" value="1"/>
<vectornator:setting key="Units" value="Points"/>
<vectornator:setting key="GuidesVisible" value="1"/>
<vectornator:setting key="RulersVisible" value="1"/>
<vectornator:setting key="SnapToGuides" value="1"/>
<vectornator:setting key="GridSpacing" value="36"/>
</metadata>
<defs/>
<g id="Untitled" vectornator:layerName="Untitled">
<path d="M0+64L34.3+64C68.6+64+137+64+206+90.7C274.3+117+334.276+248.486+402.276+269.486C471.276+290.486+625.999+298.467+651.813+160C692.222+55.6023+754+64+823+48C891.4+32+960+64+1029+80C1097.1+96+1166+96+1234+90.7C1302.9+85+1371+75+1406+69.3L1440+64L1440+320L1405.7+320C1371.4+320+1303+320+1234+320C1165.7+320+1097+320+1029+320C960+320+891+320+823+320C754.3+320+686+320+617+320C548.6+320+480+320+411+320C342.9+320+274+320+206+320C137.1+320+69+320+34+320L0+320L0+64Z" opacity="1" fill="#892cdc"/>
</g>
</svg>
